<svg width="24" height="24" viewBox="0 0 24 24" fill="none" xmlns="http://www.w3.org/2000/svg">
<path d="M17.6569 16.2429L13.4142 12.0002L17.6569 7.75759C17.8444 7.57005 17.9497 7.3157 17.9497 7.05048C17.9497 6.78527 17.8444 6.53091 17.6569 6.34338C17.4693 6.15584 17.215 6.05048 16.9497 6.05048C16.6845 6.05048 16.4302 6.15584 16.2426 6.34338L12 10.586L7.75736 6.34338C7.56982 6.15584 7.31547 6.05048 7.05025 6.05048C6.78504 6.05048 6.53068 6.15584 6.34315 6.34338C6.15561 6.53091 6.05025 6.78527 6.05025 7.05048C6.05025 7.3157 6.15561 7.57005 6.34315 7.75759L10.5858 12.0002L6.34315 16.2429C6.15561 16.4304 6.05025 16.6848 6.05025 16.95C6.05025 17.2152 6.15561 17.4695 6.34315 17.6571C6.53068 17.8446 6.78504 17.95 7.05025 17.95C7.31547 17.95 7.56982 17.8446 7.75736 17.6571L12 13.4144L16.2426 17.6571C16.4302 17.8446 16.6845 17.95 16.9497 17.95C17.215 17.95 17.4693 17.8446 17.6569 17.6571C17.8444 17.4695 17.9497 17.2152 17.9497 16.95C17.9497 16.6848 17.8444 16.4304 17.6569 16.2429Z" fill="#818690"/>
</svg>
