<svg width="24" height="24" viewBox="0 0 24 24" fill="none" xmlns="http://www.w3.org/2000/svg">
<path fill-rule="evenodd" clip-rule="evenodd" d="M18.3477 5.96326C18.8101 6.26566 18.9397 6.88486 18.6373 7.34726L11.8373 17.7473C11.7581 17.8684 11.6535 17.971 11.5308 18.0478C11.408 18.1245 11.2701 18.1738 11.1265 18.192C10.9829 18.2103 10.837 18.1971 10.6989 18.1535C10.5609 18.1099 10.434 18.0368 10.3269 17.9393L5.92694 13.9393C5.73068 13.7608 5.61334 13.5117 5.60074 13.2468C5.58814 12.9818 5.6813 12.7227 5.85974 12.5265C6.03818 12.3302 6.28727 12.2129 6.55222 12.2003C6.81717 12.1877 7.07628 12.2808 7.27254 12.4593L10.8053 15.6705L16.9637 6.25286C17.1089 6.03097 17.3362 5.8758 17.5958 5.8215C17.8553 5.76719 18.1258 5.81818 18.3477 5.96326Z" fill="#97CA4F"/>
</svg>
